ffmpeg version 3.4.8-0ubuntu0.2 Copyright (c) 2000-2020 the FFmpeg developers
  built with gcc 7 (Ubuntu 7.5.0-3ubuntu1~18.04)
  configuration: --prefix=/usr --extra-version=0ubuntu0.2 --toolchain=hardened --libdir=/usr/lib/x86_64-linux-gnu --incdir=/usr/include/x86_64-linux-gnu --enable-gpl --disable-stripping --enable-avresample --enable-avisynth --enable-gnutls --enable-ladspa --enable-libass --enable-libbluray --enable-libbs2b --enable-libcaca --enable-libcdio --enable-libflite --enable-libfontconfig --enable-libfreetype --enable-libfribidi --enable-libgme --enable-libgsm --enable-libmp3lame --enable-libmysofa --enable-libopenjpeg --enable-libopenmpt --enable-libopus --enable-libpulse --enable-librubberband --enable-librsvg --enable-libshine --enable-libsnappy --enable-libsoxr --enable-libspeex --enable-libssh --enable-libtheora --enable-libtwolame --enable-libvorbis --enable-libvpx --enable-libwavpack --enable-libwebp --enable-libx265 --enable-libxml2 --enable-libxvid --enable-libzmq --enable-libzvbi --enable-omx --enable-openal --enable-opengl --enable-sdl2 --enable-libdc1394 --enable-libdrm --enable-libiec61883 --enable-chromaprint --enable-frei0r --enable-libopencv --enable-libx264 --enable-shared
  libavutil      55. 78.100 / 55. 78.100
  libavcodec     57.107.100 / 57.107.100
  libavformat    57. 83.100 / 57. 83.100
  libavdevice    57. 10.100 / 57. 10.100
  libavfilter     6.107.100 /  6.107.100
  libavresample   3.  7.  0 /  3.  7.  0
  libswscale      4.  8.100 /  4.  8.100
  libswresample   2.  9.100 /  2.  9.100
  libpostproc    54.  7.100 / 54.  7.100
[rawvideo @ 0x5580d5abfa20] Estimating duration from bitrate, this may be inaccurate
Input #0, rawvideo, from '../../SVC-Encoder-20220109T061506Z-001/SVC-Encoder/Dataset/RollerCoaster/6f_2x2/tile_yuv/f0_t1_480x480.yuv':
  Duration: 00:00:10.00, start: 0.000000, bitrate: 82944 kb/s
    Stream #0:0: Video: rawvideo (I420 / 0x30323449), yuv420p, 480x480, 82944 kb/s, 30 tbr, 30 tbn, 30 tbc
Stream mapping:
  Stream #0:0 -> #0:0 (rawvideo (native) -> h264 (libx264))
Press [q] to stop, [?] for help
[libx264 @ 0x5580d5accc60] using cpu capabilities: MMX2 SSE2Fast LZCNT SSSE3 SSE4.2 AVX
[libx264 @ 0x5580d5accc60] profile High, level 3.0
Output #0, rawvideo, to 'RollerCoaster_f0_t1_480x480_x264_QP_36.h264':
  Metadata:
    encoder         : Lavf57.83.100
    Stream #0:0: Video: h264 (libx264), yuv420p, 480x480, q=-1--1, 30 fps, 30 tbn, 30 tbc
    Metadata:
      encoder         : Lavc57.107.100 libx264
    Side data:
      cpb: bitrate max/min/avg: 0/0/0 buffer size: 0 vbv_delay: -1
frame=  300 fps=0.0 q=42.0 LPSNR=Y:inf U:inf V:inf *:inf size=      18kB time=00:00:09.93 bitrate=  14.9kbits/s speed=24.4x    
video:18kB audio:0kB subtitle:0kB other streams:0kB global headers:0kB muxing overhead: 0.000000%
[libx264 @ 0x5580d5accc60] frame I:2     Avg QP:34.92  size:  1018  PSNR Mean Y:43.92 U:46.74 V:47.91 Avg:44.78 Global:44.77
[libx264 @ 0x5580d5accc60] frame P:80    Avg QP:36.77  size:   115  PSNR Mean Y:44.15 U:46.84 V:47.05 Avg:44.88 Global:44.82
[libx264 @ 0x5580d5accc60] frame B:218   Avg QP:41.50  size:    34  PSNR Mean Y:44.11 U:46.87 V:47.04 Avg:44.85 Global:44.77
[libx264 @ 0x5580d5accc60] consecutive B-frames:  1.7%  3.3%  3.0% 92.0%
[libx264 @ 0x5580d5accc60] mb I  I16..4: 12.9% 86.0%  1.1%
[libx264 @ 0x5580d5accc60] mb P  I16..4:  0.7%  3.0%  0.0%  P16..4:  1.4%  0.3%  0.1%  0.0%  0.0%    skip:94.5%
[libx264 @ 0x5580d5accc60] mb B  I16..4:  0.0%  0.0%  0.0%  B16..8:  1.2%  0.0%  0.0%  direct: 0.0%  skip:98.8%  L0:36.0% L1:63.5% BI: 0.5%
[libx264 @ 0x5580d5accc60] 8x8 transform intra:83.0% inter:83.4%
[libx264 @ 0x5580d5accc60] coded y,uvDC,uvAC intra: 2.0% 6.6% 0.6% inter: 0.1% 0.1% 0.0%
[libx264 @ 0x5580d5accc60] i16 v,h,dc,p: 38% 52%  5%  5%
[libx264 @ 0x5580d5accc60] i8 v,h,dc,ddl,ddr,vr,hd,vl,hu:  2%  0% 96%  0%  0%  1%  0%  0%  0%
[libx264 @ 0x5580d5accc60] i4 v,h,dc,ddl,ddr,vr,hd,vl,hu: 31% 21% 24%  2%  3% 10%  4%  2%  3%
[libx264 @ 0x5580d5accc60] i8c dc,h,v,p: 95%  2%  2%  0%
[libx264 @ 0x5580d5accc60] Weighted P-Frames: Y:2.5% UV:0.0%
[libx264 @ 0x5580d5accc60] ref P L0: 69.0% 11.6% 14.9%  4.4%  0.2%
[libx264 @ 0x5580d5accc60] ref B L0: 88.1% 10.8%  1.0%
[libx264 @ 0x5580d5accc60] ref B L1: 91.0%  9.0%
[libx264 @ 0x5580d5accc60] PSNR Mean Y:44.116 U:46.862 V:47.052 Avg:44.856 Global:44.783 kb/s:14.83
